<svg width="78" height="39" viewBox="0 0 78 39" fill="none" xmlns="http://www.w3.org/2000/svg">
<path id="Vector" fill-rule="evenodd" clip-rule="evenodd" d="M9.17179 39H0L18.0393 4.30693C18.0393 4.30693 19.9959 -0.101673 27.0907 0.19929C34.1897 0.49778 34.5553 4.83268 34.5553 4.83268L38.6713 38.9995H29.4731L25.4257 7.66871L9.17179 39ZM78 0.0533835L76.3353 8.41456L56.4909 8.48875C56.4909 8.48875 54.2534 8.11657 53.0946 11.028C51.9341 13.9499 53.5257 15.2801 54.1016 15.2875L67.8636 15.3651C69.2174 15.3686 75.0944 16.6862 74.7422 23.8727C74.4041 30.9183 69.6058 35.7522 70.2544 34.7779C70.9066 33.8151 67.5833 38.9998 63.6702 38.9998H40.4998L41.9396 30.8958L61.7837 30.7504C61.7837 30.7504 64.3895 31.0491 65.545 27.9057C66.7043 24.7724 65.2669 23.8092 64.1006 23.7993L50.922 23.7263C50.922 23.7263 42.8961 22.4589 43.7499 14.4655C44.01 12.0197 44.5148 9.46262 45.8585 7.19934C48.2476 3.15229 51.5382 -0.120715 57.0769 0.118176C64.8928 -0.10192 77.9995 0.0528891 77.9995 0.0528891L78 0.0533835Z" fill="#1A56DB"/>
</svg>
